<svg width="65" height="65" viewBox="0 0 65 65" fill="none" xmlns="http://www.w3.org/2000/svg">
<path d="M24.4958 45.9412L45.8558 32.3412L24.4958 18.7412V45.9412ZM32.2558 64.3412C27.8825 64.3412 23.7491 63.5012 19.8558 61.8212C15.9625 60.1412 12.5625 57.8479 9.6558 54.9412C6.74913 52.0346 4.4558 48.6346 2.7758 44.7412C1.0958 40.8479 0.255798 36.7146 0.255798 32.3412C0.255798 27.9679 1.0958 23.8346 2.7758 19.9412C4.4558 16.0479 6.74913 12.6479 9.6558 9.74123C12.5625 6.83457 15.9625 4.54123 19.8558 2.86123C23.7491 1.18123 27.8825 0.341232 32.2558 0.341232C36.6291 0.341232 40.7625 1.18123 44.6558 2.86123C48.5491 4.54123 51.9491 6.83457 54.8558 9.74123C57.7625 12.6479 60.0558 16.0479 61.7358 19.9412C63.4158 23.8346 64.2558 27.9679 64.2558 32.3412C64.2558 36.7146 63.4158 40.8479 61.7358 44.7412C60.0558 48.6346 57.7625 52.0346 54.8558 54.9412C51.9491 57.8479 48.5491 60.1412 44.6558 61.8212C40.7625 63.5012 36.6291 64.3412 32.2558 64.3412ZM32.2558 59.5412C39.7225 59.5412 46.1225 56.8746 51.4558 51.5412C56.7891 46.2079 59.4558 39.8079 59.4558 32.3412C59.4558 24.8746 56.7891 18.4746 51.4558 13.1412C46.1225 7.8079 39.7225 5.14123 32.2558 5.14123C24.7891 5.14123 18.3891 7.8079 13.0558 13.1412C7.72247 18.4746 5.0558 24.8746 5.0558 32.3412C5.0558 39.8079 7.72247 46.2079 13.0558 51.5412C18.3891 56.8746 24.7891 59.5412 32.2558 59.5412Z" fill="#323238"/>
</svg>
