<svg width="65" height="65" viewBox="0 0 65 65" fill="none" xmlns="http://www.w3.org/2000/svg">
<path d="M30.0958 48.3412H34.8958V35.0612H48.2558V30.2612H34.8958V16.3412H30.0958V30.2612H16.2558V35.0612H30.0958V48.3412ZM32.2558 64.3412C27.7225 64.3412 23.5091 63.5279 19.6158 61.9012C15.7225 60.2746 12.3358 58.0212 9.4558 55.1412C6.5758 52.2612 4.32247 48.8746 2.6958 44.9812C1.06913 41.0879 0.255798 36.8746 0.255798 32.3412C0.255798 27.8612 1.06913 23.6746 2.6958 19.7812C4.32247 15.8879 6.5758 12.5012 9.4558 9.62123C12.3358 6.74123 15.7225 4.47457 19.6158 2.82123C23.5091 1.1679 27.7225 0.341232 32.2558 0.341232C36.7358 0.341232 40.9225 1.1679 44.8158 2.82123C48.7091 4.47457 52.0958 6.74123 54.9758 9.62123C57.8558 12.5012 60.1225 15.8879 61.7758 19.7812C63.4291 23.6746 64.2558 27.8612 64.2558 32.3412C64.2558 36.8746 63.4291 41.0879 61.7758 44.9812C60.1225 48.8746 57.8558 52.2612 54.9758 55.1412C52.0958 58.0212 48.7091 60.2746 44.8158 61.9012C40.9225 63.5279 36.7358 64.3412 32.2558 64.3412ZM32.2558 59.5412C39.7225 59.5412 46.1225 56.8746 51.4558 51.5412C56.7891 46.2079 59.4558 39.8079 59.4558 32.3412C59.4558 24.8746 56.7891 18.4746 51.4558 13.1412C46.1225 7.8079 39.7225 5.14123 32.2558 5.14123C24.7891 5.14123 18.3891 7.8079 13.0558 13.1412C7.72247 18.4746 5.0558 24.8746 5.0558 32.3412C5.0558 39.8079 7.72247 46.2079 13.0558 51.5412C18.3891 56.8746 24.7891 59.5412 32.2558 59.5412Z" fill="#323238"/>
</svg>
