<svg width="65" height="65" viewBox="0 0 65 65" fill="none" xmlns="http://www.w3.org/2000/svg">
<path d="M32.2558 64.3412C27.7225 64.3412 23.5091 63.5279 19.6158 61.9012C15.7225 60.2746 12.3358 58.0212 9.4558 55.1412C6.5758 52.2612 4.32247 48.8746 2.6958 44.9812C1.06913 41.0879 0.255798 36.8746 0.255798 32.3412C0.255798 27.8612 1.06913 23.6746 2.6958 19.7812C4.32247 15.8879 6.5758 12.5012 9.4558 9.62123C12.3358 6.74123 15.7225 4.47457 19.6158 2.82123C23.5091 1.1679 27.7225 0.341232 32.2558 0.341232C36.7358 0.341232 40.9225 1.1679 44.8158 2.82123C48.7091 4.47457 52.0958 6.74123 54.9758 9.62123C57.8558 12.5012 60.1225 15.8879 61.7758 19.7812C63.4291 23.6746 64.2558 27.8612 64.2558 32.3412C64.2558 36.8746 63.4291 41.0879 61.7758 44.9812C60.1225 48.8746 57.8558 52.2612 54.9758 55.1412C52.0958 58.0212 48.7091 60.2746 44.8158 61.9012C40.9225 63.5279 36.7358 64.3412 32.2558 64.3412ZM32.2558 59.5412C39.9891 59.5412 46.4558 56.9412 51.6558 51.7412C56.8558 46.5412 59.4558 40.0746 59.4558 32.3412C59.4558 24.6079 56.8558 18.1412 51.6558 12.9412C46.4558 7.74123 39.9891 5.14123 32.2558 5.14123C24.5225 5.14123 18.0558 7.74123 12.8558 12.9412C7.6558 18.1412 5.0558 24.6079 5.0558 32.3412C5.0558 40.0746 7.6558 46.5412 12.8558 51.7412C18.0558 56.9412 24.5225 59.5412 32.2558 59.5412ZM20.2558 44.3412H44.2558V20.3412H20.2558V44.3412Z" fill="#323238"/>
</svg>
